<?xml version="1.0" encoding="UTF-8"?>
<svg id="Ebene_1" data-name="Ebene 1" xmlns="http://www.w3.org/2000/svg" viewBox="0 0 98 98">
  <defs>
    <style>
      .cls-1 {
        fill: #000;
        stroke-width: 0px;
      }
    </style>
  </defs>
  <path class="cls-1" d="M49,0C21.94,0,0,21.94,0,49s21.94,49,49,49,49-21.94,49-49S76.06,0,49,0ZM48.88,89.39c-22.41,0-40.58-18.17-40.58-40.58S26.47,8.24,48.88,8.24s40.58,18.17,40.58,40.58-18.17,40.58-40.58,40.58h0Z"/>
  <g>
    <rect class="cls-1" x="25.64" y="20.06" width="12.29" height="44.48" rx="2.74" ry="2.74"/>
    <rect class="cls-1" x="20.25" y="66.78" width="56.74" height="5.09" rx="1.43" ry="1.43"/>
    <rect class="cls-1" x="42.6" y="33.83" width="12.29" height="30.74" rx="2.74" ry="2.74"/>
    <rect class="cls-1" x="59.32" y="47.11" width="12.29" height="17.43" rx="2.74" ry="2.74"/>
  </g>
</svg>