<svg width="40" height="41" viewBox="0 0 40 41" fill="none" xmlns="http://www.w3.org/2000/svg">
<path d="M0.5 0.5V32.5H39.5" stroke="#1F1F1F" stroke-linecap="round"/>
<circle cx="6.78561" cy="24.1499" r="2.85714" fill="#3E699B"/>
<circle cx="6.78561" cy="24.1499" r="2.70714" stroke="black" stroke-opacity="0.1" stroke-width="0.3"/>
<circle cx="22.7856" cy="17.2927" r="2.85714" fill="#3E699B"/>
<circle cx="22.7856" cy="17.2927" r="2.70714" stroke="black" stroke-opacity="0.1" stroke-width="0.3"/>
<circle cx="14.7856" cy="19.5783" r="2.85714" fill="#3E699B"/>
<circle cx="14.7856" cy="19.5783" r="2.70714" stroke="black" stroke-opacity="0.1" stroke-width="0.3"/>
<circle cx="31.9287" cy="6.78561" r="2.85714" fill="#3E699B"/>
<circle cx="31.9287" cy="6.78561" r="2.70714" stroke="black" stroke-opacity="0.1" stroke-width="0.3"/>
<circle cx="18.2143" cy="11.5783" r="2.85714" fill="#3E699B"/>
<circle cx="18.2143" cy="11.5783" r="2.70714" stroke="black" stroke-opacity="0.1" stroke-width="0.3"/>
<circle cx="7.92868" cy="17.2927" r="2.85714" fill="#3E699B"/>
<circle cx="7.92868" cy="17.2927" r="2.70714" stroke="black" stroke-opacity="0.1" stroke-width="0.3"/>
<path d="M12.0453 38.2423C11.7573 38.2423 11.4933 38.1729 11.2533 38.0343C11.0133 37.8903 10.8213 37.7009 10.6773 37.4663C10.5387 37.2263 10.4693 36.9623 10.4693 36.6743C10.4693 36.3809 10.5387 36.1169 10.6773 35.8823C10.8213 35.6423 11.0133 35.4503 11.2533 35.3063C11.4933 35.1623 11.7573 35.0903 12.0453 35.0903C12.3333 35.0903 12.5973 35.1623 12.8373 35.3063C13.0773 35.4503 13.2667 35.6423 13.4053 35.8823C13.5493 36.1169 13.6213 36.3809 13.6213 36.6743C13.6213 36.9623 13.5493 37.2263 13.4053 37.4663C13.2667 37.7009 13.0773 37.8903 12.8373 38.0343C12.5973 38.1729 12.3333 38.2423 12.0453 38.2423ZM11.8133 40.5303L15.5493 35.1863H16.5653L12.8213 40.5303H11.8133ZM12.0453 37.2983C12.2213 37.2983 12.3707 37.2369 12.4933 37.1143C12.616 36.9916 12.6773 36.8449 12.6773 36.6743C12.6773 36.4983 12.616 36.3489 12.4933 36.2263C12.3707 36.1036 12.2213 36.0423 12.0453 36.0423C11.8747 36.0423 11.728 36.1036 11.6053 36.2263C11.4827 36.3489 11.4213 36.4983 11.4213 36.6743C11.4213 36.8449 11.4827 36.9916 11.6053 37.1143C11.728 37.2369 11.8747 37.2983 12.0453 37.2983ZM16.3253 40.6263C16.0373 40.6263 15.7733 40.5543 15.5333 40.4103C15.2933 40.2663 15.1013 40.0743 14.9573 39.8343C14.8187 39.5943 14.7493 39.3303 14.7493 39.0423C14.7493 38.7489 14.8187 38.4849 14.9573 38.2503C15.1013 38.0156 15.2933 37.8289 15.5333 37.6903C15.7733 37.5463 16.0373 37.4743 16.3253 37.4743C16.6187 37.4743 16.8827 37.5463 17.1173 37.6903C17.3573 37.8289 17.5467 38.0156 17.6853 38.2503C17.8293 38.4849 17.9013 38.7489 17.9013 39.0423C17.9013 39.3303 17.8293 39.5943 17.6853 39.8343C17.5467 40.0743 17.3573 40.2663 17.1173 40.4103C16.8827 40.5543 16.6187 40.6263 16.3253 40.6263ZM16.3253 39.6743C16.496 39.6743 16.6427 39.6129 16.7653 39.4903C16.8933 39.3676 16.9573 39.2183 16.9573 39.0423C16.9573 38.8716 16.8933 38.7249 16.7653 38.6023C16.6427 38.4796 16.496 38.4183 16.3253 38.4183C16.1547 38.4183 16.0053 38.4796 15.8773 38.6023C15.7547 38.7249 15.6933 38.8716 15.6933 39.0423C15.6933 39.2183 15.7547 39.3676 15.8773 39.4903C16.0053 39.6129 16.1547 39.6743 16.3253 39.6743ZM21.0418 40.6263C20.4872 40.6263 20.0098 40.5143 19.6098 40.2903C19.2098 40.0663 18.9032 39.7463 18.6898 39.3303C18.4765 38.9143 18.3698 38.4236 18.3698 37.8583C18.3698 37.2929 18.4792 36.8049 18.6978 36.3943C18.9218 35.9783 19.2365 35.6583 19.6418 35.4343C20.0472 35.2049 20.5245 35.0903 21.0738 35.0903C21.5805 35.0903 22.0205 35.2023 22.3938 35.4263C22.7725 35.6503 23.0632 35.9516 23.2658 36.3303L22.1458 36.7383C22.0285 36.5196 21.8685 36.3649 21.6658 36.2743C21.4632 36.1783 21.2525 36.1303 21.0338 36.1303C20.7885 36.1303 20.5645 36.1996 20.3618 36.3383C20.1592 36.4716 19.9992 36.6689 19.8818 36.9303C19.7645 37.1863 19.7058 37.4956 19.7058 37.8583C19.7058 38.4183 19.8338 38.8476 20.0898 39.1463C20.3512 39.4396 20.6712 39.5863 21.0498 39.5863C21.2525 39.5863 21.4605 39.5436 21.6738 39.4583C21.8925 39.3729 22.0632 39.2156 22.1858 38.9863L23.2978 39.3943C23.0845 39.7729 22.7805 40.0743 22.3858 40.2983C21.9965 40.5169 21.5485 40.6263 21.0418 40.6263ZM25.3607 40.5303L23.5527 35.1863H24.8647L26.0887 39.1143L27.3207 35.1863H28.6407L26.8247 40.5303H25.3607Z" fill="#1F1F1F"/>
</svg>
